<mxfile host="app.diagrams.net" agent="Mozilla/5.0 (Windows NT 10.0; Win64; x64) AppleWebKit/537.36 (KHTML, like Gecko) Chrome/131.0.0.0 Safari/537.36 Edg/131.0.0.0" version="25.0.3">
  <diagram name="Page-1" id="dU-sHADmfi-86Q6n2X3x">
    <mxGraphModel dx="1366" dy="752" grid="1" gridSize="10" guides="1" tooltips="1" connect="1" arrows="1" fold="1" page="1" pageScale="1" pageWidth="850" pageHeight="1100" math="0" shadow="0">
      <root>
        <mxCell id="0" />
        <mxCell id="1" parent="0" />
        <mxCell id="x27SrQuYYKdqs3DmdlNX-1" style="edgeStyle=orthogonalEdgeStyle;rounded=0;orthogonalLoop=1;jettySize=auto;html=1;" edge="1" parent="1" source="x27SrQuYYKdqs3DmdlNX-2" target="x27SrQuYYKdqs3DmdlNX-9">
          <mxGeometry relative="1" as="geometry" />
        </mxCell>
        <mxCell id="x27SrQuYYKdqs3DmdlNX-2" value="Retrieval" style="rounded=1;whiteSpace=wrap;html=1;" vertex="1" parent="1">
          <mxGeometry x="165" y="360" width="80" height="40" as="geometry" />
        </mxCell>
        <mxCell id="x27SrQuYYKdqs3DmdlNX-3" style="edgeStyle=orthogonalEdgeStyle;rounded=0;orthogonalLoop=1;jettySize=auto;html=1;exitX=0.855;exitY=0;exitDx=0;exitDy=2.271659291585292;exitPerimeter=0;entryX=0.75;entryY=1;entryDx=0;entryDy=0;" edge="1" parent="1" source="x27SrQuYYKdqs3DmdlNX-4" target="x27SrQuYYKdqs3DmdlNX-2">
          <mxGeometry relative="1" as="geometry" />
        </mxCell>
        <mxCell id="x27SrQuYYKdqs3DmdlNX-4" value="VDB" style="shape=cylinder3;whiteSpace=wrap;html=1;boundedLbl=1;backgroundOutline=1;size=7.833307902018248;" vertex="1" parent="1">
          <mxGeometry x="177.5" y="450" width="55" height="40" as="geometry" />
        </mxCell>
        <mxCell id="x27SrQuYYKdqs3DmdlNX-5" style="edgeStyle=orthogonalEdgeStyle;rounded=0;orthogonalLoop=1;jettySize=auto;html=1;entryX=0.145;entryY=0;entryDx=0;entryDy=2.271659291585292;entryPerimeter=0;exitX=0.25;exitY=1;exitDx=0;exitDy=0;" edge="1" parent="1" source="x27SrQuYYKdqs3DmdlNX-2" target="x27SrQuYYKdqs3DmdlNX-4">
          <mxGeometry relative="1" as="geometry" />
        </mxCell>
        <mxCell id="x27SrQuYYKdqs3DmdlNX-6" value="" style="edgeStyle=orthogonalEdgeStyle;rounded=0;orthogonalLoop=1;jettySize=auto;html=1;" edge="1" parent="1" source="x27SrQuYYKdqs3DmdlNX-7" target="x27SrQuYYKdqs3DmdlNX-2">
          <mxGeometry relative="1" as="geometry" />
        </mxCell>
        <mxCell id="x27SrQuYYKdqs3DmdlNX-7" value="C" style="ellipse;whiteSpace=wrap;html=1;aspect=fixed;fillColor=#f8cecc;strokeColor=#b85450;" vertex="1" parent="1">
          <mxGeometry x="95" y="365" width="30" height="30" as="geometry" />
        </mxCell>
        <mxCell id="x27SrQuYYKdqs3DmdlNX-8" value="" style="edgeStyle=orthogonalEdgeStyle;rounded=0;orthogonalLoop=1;jettySize=auto;html=1;" edge="1" parent="1" source="x27SrQuYYKdqs3DmdlNX-9" target="x27SrQuYYKdqs3DmdlNX-18">
          <mxGeometry relative="1" as="geometry" />
        </mxCell>
        <mxCell id="x27SrQuYYKdqs3DmdlNX-9" value="Pretrained&lt;div&gt;LLM&lt;/div&gt;" style="sketch=0;outlineConnect=0;fontColor=#232F3E;gradientColor=none;fillColor=#7AA116;strokeColor=none;dashed=0;verticalLabelPosition=bottom;verticalAlign=top;align=center;html=1;fontSize=12;fontStyle=0;aspect=fixed;pointerEvents=1;shape=mxgraph.aws4.iot_sitewise_asset_model;" vertex="1" parent="1">
          <mxGeometry x="615" y="350" width="60" height="60" as="geometry" />
        </mxCell>
        <mxCell id="x27SrQuYYKdqs3DmdlNX-10" value="C&lt;sub&gt;1&lt;/sub&gt;" style="ellipse;whiteSpace=wrap;html=1;aspect=fixed;fillColor=#f8cecc;strokeColor=#b85450;" vertex="1" parent="1">
          <mxGeometry x="285" y="340" width="30" height="30" as="geometry" />
        </mxCell>
        <mxCell id="x27SrQuYYKdqs3DmdlNX-11" value="D&lt;span style=&quot;font-size: 10px;&quot;&gt;1&lt;/span&gt;" style="ellipse;whiteSpace=wrap;html=1;aspect=fixed;fillColor=#dae8fc;strokeColor=#6c8ebf;" vertex="1" parent="1">
          <mxGeometry x="325" y="340" width="30" height="30" as="geometry" />
        </mxCell>
        <mxCell id="x27SrQuYYKdqs3DmdlNX-12" value="C&lt;sub&gt;2&lt;/sub&gt;" style="ellipse;whiteSpace=wrap;html=1;aspect=fixed;fillColor=#f8cecc;strokeColor=#b85450;" vertex="1" parent="1">
          <mxGeometry x="365" y="340" width="30" height="30" as="geometry" />
        </mxCell>
        <mxCell id="x27SrQuYYKdqs3DmdlNX-13" value="D&lt;sub&gt;2&lt;/sub&gt;" style="ellipse;whiteSpace=wrap;html=1;aspect=fixed;fillColor=#dae8fc;strokeColor=#6c8ebf;" vertex="1" parent="1">
          <mxGeometry x="405" y="340" width="30" height="30" as="geometry" />
        </mxCell>
        <mxCell id="x27SrQuYYKdqs3DmdlNX-14" value="C&lt;sub&gt;n&lt;/sub&gt;" style="ellipse;whiteSpace=wrap;html=1;aspect=fixed;fillColor=#f8cecc;strokeColor=#b85450;" vertex="1" parent="1">
          <mxGeometry x="465" y="340" width="30" height="30" as="geometry" />
        </mxCell>
        <mxCell id="x27SrQuYYKdqs3DmdlNX-15" value="D&lt;sub&gt;n&lt;/sub&gt;" style="ellipse;whiteSpace=wrap;html=1;aspect=fixed;fillColor=#dae8fc;strokeColor=#6c8ebf;" vertex="1" parent="1">
          <mxGeometry x="505" y="340" width="30" height="30" as="geometry" />
        </mxCell>
        <mxCell id="x27SrQuYYKdqs3DmdlNX-16" value="&lt;b&gt;&lt;font style=&quot;font-size: 19px;&quot;&gt;...&lt;/font&gt;&lt;/b&gt;" style="text;html=1;align=center;verticalAlign=middle;resizable=0;points=[];autosize=1;strokeColor=none;fillColor=none;" vertex="1" parent="1">
          <mxGeometry x="430" y="330" width="40" height="40" as="geometry" />
        </mxCell>
        <mxCell id="x27SrQuYYKdqs3DmdlNX-17" value="C" style="ellipse;whiteSpace=wrap;html=1;aspect=fixed;fillColor=#f8cecc;strokeColor=#b85450;" vertex="1" parent="1">
          <mxGeometry x="545" y="340" width="30" height="30" as="geometry" />
        </mxCell>
        <mxCell id="x27SrQuYYKdqs3DmdlNX-18" value="D" style="ellipse;whiteSpace=wrap;html=1;aspect=fixed;fillColor=#dae8fc;strokeColor=#6c8ebf;" vertex="1" parent="1">
          <mxGeometry x="725" y="365" width="30" height="30" as="geometry" />
        </mxCell>
      </root>
    </mxGraphModel>
  </diagram>
</mxfile>
